<svg xmlns="http://www.w3.org/2000/svg" width="77" height="60" viewBox="0 0 77 60"><g fill="#FFF" fill-rule="evenodd"><path d="M33.917 17.66a.514.514 0 0 0 .074.005c.619 0 1.901-.721 2.588-1.455.871-.925.868-1.71-.009-2.704-.226-.258-.448-.397-.623-.397-.246 0-.406.293-.45.383-.383.785-1.462 3.632-1.473 3.663-.11.296-.112.45-.107.505zm.074 1.035c-.512 0-.784-.235-.92-.427-.247-.345-.254-.827-.018-1.471.048-.126 1.112-2.924 1.512-3.748.294-.607.81-.968 1.382-.968.337 0 .854.13 1.4.747 1.23 1.392 1.224 2.766-.009 4.085-.809.86-2.344 1.782-3.347 1.782zM17.09 20.729a15.15 15.15 0 0 0 1.605.083l.193-.001c2.333-.029 4.427-.929 5.892-2.543 1.345-1.482 2.05-3.445 1.885-5.26-.259-2.808-2.717-4.396-4.187-5.345-.375-.25-.674-.44-.884-.618a1.164 1.164 0 0 0-.129-.103c-.256.32-.706 1.557-1.306 3.217a290.21 290.21 0 0 1-.914 2.501c-.921 2.47-1.658 5.247-2.155 8.07zm1.605 1.114c-.76 0-1.51-.052-2.278-.16a.514.514 0 0 1-.44-.592c.506-3.066 1.297-6.104 2.294-8.787.358-.962.655-1.788.913-2.491 1.153-3.18 1.428-3.936 2.248-3.936.339 0 .613.196.839.386.159.134.444.318.775.534 1.518.988 4.345 2.816 4.65 6.12.19 2.088-.613 4.351-2.147 6.04-1.66 1.826-4.02 2.852-6.649 2.882l-.205.004zM6.697 5.528c-.606 0-1.157.343-1.593 1.003-1.642 2.436-2.151 6.774.605 10.515 1.66 2.247 3.718 3.973 6.12 5.118a.513.513 0 0 1 .294.444c.144 3.887.745 7.725 1.527 9.781.575 1.51 1.282 3.377 1.641 3.624l.122-.058a.687.687 0 0 0 .129-.064c.155-.264.031-2.385-.135-5.072-.13-2.134-.066-4.434.178-6.826a.512.512 0 0 1 .206-.36.499.499 0 0 1 .399-.092c1.115.188 2.282.29 3.463.29 4.458 0 7.658-1.446 9.257-4.173a.519.519 0 0 1 .963.22c.092 1.136.36 2.155.805 3.036 1.246 2.475 2.76 3.575 4.911 3.575.739 0 1.574-.138 2.486-.41 2.027-.605 3.634-1.94 4.775-3.959a.516.516 0 0 1 .96.33c-.038.237-.066.46-.083.64l-.05.504c-.118 1.19-.223 2.217.268 2.773.321.362.914.552 1.821.583h.104c2.106 0 4.292-1.957 5.734-3.25.602-.54 1.04-.934 1.378-1.104.305-.152.61-1.017.557-2.007-.042-.812-.291-1.268-.509-1.355a.65.65 0 0 0-.188-.031c-.951 0-2.604 1.848-3.806 3.2-1.02 1.149-1.422 1.548-1.894 1.548a.68.68 0 0 1-.51-.228c-.292-.322-.328-.88-.156-2.485.245-2.272 1.208-4.758 1.982-6.755.228-.592.448-1.155.614-1.638.1-.272.17-.503.237-.706.32-.98.495-1.52 1.596-1.644.462-.052 1.457-.086 2.967-.143 1.583-.056 3.753-.135 6.246-.27.77-.04 1.48-.068 2.122-.093 1.882-.07 3.503-.133 3.8-.548.101-.14.042-.432-.026-.646-.058-.194-.108-.374-.16-.542-.349-1.22-.435-1.51-1.55-1.51-.442 0-1.03.066-1.794.195-.67.113-1.467.265-2.32.424-2.645.498-5.645 1.059-7.328 1.059-.84 0-1.297-.137-1.537-.465a.775.775 0 0 1-.097-.711c.309-.918.872-1.89 1.52-3.015.338-.588.69-1.191 1.034-1.845.055-.1.11-.265-.038-.515-.26-.418-.987-.84-1.892-.84-.73 0-2.497.32-3.114 3.306l-.082.403c-.37 1.822-.613 3.03-2.39 3.03h-.116c-.221-.007-6.465-.36-7.901-.626a2.438 2.438 0 0 0-.444-.045c-.258 0-.4.054-.457.087.028.07.133.248.437.487 1.287 1.014 3.24 1.697 4.973 1.741 1.346.035 2.456.496 3.05 1.264.431.561.564 1.232.395 1.946-.08.313-.235.894-.426 1.623-.213.805-.479 1.796-.745 2.835-.52 1.982-4.3 6.947-6.926 7.59-.82.201-1.417.289-1.936.289-1.126 0-1.953-.451-2.53-1.382-.662-1.066-1.193-2.53-.803-3.229a.761.761 0 0 1 .678-.394l.06.001c.029.003.47.052 1.133.052 1.337 0 3.805-.204 5.307-1.566 1.08-.977 1.64-2.461 1.511-3.97-.109-1.246-.671-2.276-1.543-2.825-1.063-.674-2.721-1.105-4.229-1.105-1.137 0-3.186.251-4.156 1.952-.182.318-.362.675-.537 1.061a.509.509 0 0 1-.551.293.512.512 0 0 1-.433-.453c-.354-3.404-2.31-5.982-5.82-7.65-2.998-1.43-4.925-1.912-7.625-1.912-.468 0-.958.013-1.507.04-1.17.068-3.128.17-3.356.417.005.009-.003.105.095.437.077.254.197.402.585.402.405 0 .918-.17 1.37-.33 1.142-.406 1.755-.3 1.755-.3.17.022.317.129.395.278a.51.51 0 0 1-.004.475c-.03.058-3.065 5.676-3.667 11.328a40.534 40.534 0 0 0-.19 2.866.517.517 0 0 1-.798.417c-1.6-1.027-2.864-2.44-3.652-4.073-2.045-4.237-.46-7.315.314-8.447a.945.945 0 0 0 .066-1.04c-.243-.463-.785-.775-1.34-.775zm8.588 31.523c-.971 0-1.482-1.348-2.606-4.298-.797-2.096-1.41-5.916-1.578-9.798-2.435-1.22-4.528-3.003-6.224-5.3-3.05-4.138-2.47-8.967-.636-11.697.63-.94 1.505-1.46 2.456-1.46.945 0 1.83.522 2.259 1.324.365.688.316 1.456-.127 2.104-.673.98-2.05 3.661-.238 7.418a8.83 8.83 0 0 0 2.521 3.113 39.08 39.08 0 0 1 .157-1.984c.487-4.586 2.45-9.015 3.342-10.843-.133.034-.28.08-.446.136-.533.189-1.145.389-1.716.389-.802 0-1.36-.399-1.578-1.141-.128-.424-.236-.911.055-1.318.422-.596 1.413-.7 4.142-.849.567-.03 1.077-.045 1.564-.045 2.878 0 4.918.51 8.076 2.016 3.315 1.58 5.372 3.911 6.129 6.94.948-1.452 2.684-2.246 4.917-2.246 1.714 0 3.549.488 4.781 1.269 1.149.726 1.885 2.034 2.023 3.598.158 1.831-.53 3.633-1.845 4.824-1.76 1.597-4.518 1.832-6.005 1.832-.419 0-.758-.016-.972-.032.024.371.26 1.185.785 2.036.393.634.872.891 1.65.891.435 0 .953-.076 1.686-.257 2.183-.533 5.74-5.195 6.17-6.849.27-1.043.532-2.04.747-2.847.193-.72.344-1.289.419-1.6.1-.402.028-.763-.205-1.07-.398-.516-1.242-.842-2.256-.865-1.973-.052-4.113-.803-5.59-1.962-.923-.725-.882-1.337-.78-1.636.217-.624 1.034-.904 2.077-.714 1.348.249 7.495.6 7.74.609l.086.004c.867 0 .99-.309 1.376-2.21l.082-.404C48.515.298 51.083 0 51.853 0c1.171 0 2.285.538 2.774 1.34.305.496.329 1.036.07 1.525a43.53 43.53 0 0 1-1.05 1.874c-.564.986-1.066 1.848-1.355 2.617.109.02.29.037.57.037 1.584 0 4.662-.579 7.138-1.044.858-.157 1.664-.31 2.332-.425.836-.146 1.461-.21 1.973-.21 1.893 0 2.184.997 2.545 2.254.046.162.097.337.155.524.2.643.16 1.15-.12 1.542-.592.83-2.018.884-4.603.98-.637.03-1.34.053-2.111.097-2.502.134-4.675.214-6.262.27-1.434.052-2.467.09-2.891.136-.432.05-.432.05-.723.935a20.5 20.5 0 0 1-.247.728c-.172.504-.392 1.07-.623 1.67-.751 1.94-1.69 4.358-1.92 6.496a17.657 17.657 0 0 0-.098 1.298c.269-.265.614-.652.852-.923 1.854-2.077 3.268-3.547 4.583-3.547.2 0 .388.036.566.104.684.266 1.11 1.089 1.166 2.259.06 1.169-.265 2.541-1.121 2.975-.214.111-.672.52-1.155.95-1.59 1.429-4.018 3.59-6.567 3.516-1.205-.04-2.046-.345-2.566-.933-.624-.707-.67-1.672-.596-2.723a8.666 8.666 0 0 1-4.195 2.741c-1.007.303-1.94.455-2.785.455-2.524 0-4.436-1.357-5.838-4.143a8.664 8.664 0 0 1-.72-2.092c-1.944 2.341-5.152 3.577-9.378 3.577a21.95 21.95 0 0 1-3.09-.22 40.492 40.492 0 0 0-.122 6.118c.33 5.484.347 5.696-.594 6.132l-.104.048a1.006 1.006 0 0 1-.458.113z"/><path d="M12.93 59.232S5.875 54.881 2.347 45.22C-1.178 35.56.23 29.169.536 27.809c.764-3.383 1.485-3.715 3.946-3.397 2.457.316 2.564 0 5.342 6.477 2.779 6.478 5.348 12.1 6.198 13.692.857 1.596 1.392 2.761 1.605-1.698.214-4.457.643-10.511 2.46-13.482 1.815-2.973 3.099-3.29 6.627-2.973 3.527.32 4.167 2.126 4.167 4.247 0 2.123-.212 3.186-2.457 1.803-2.244-1.378-2.66-3.712-4.002-1.27-1.343 2.441-3.16 9.871-3.373 15.39-.215 5.523.853 5.946-.43 6.478-1.28.531-3.74.424-6.09-2.759-2.353-3.187-4.813-9.003-6.093-12.68-1.285-3.67-1.323-3.908-1.927-3.988-1.318-.178-1.53 2.822-.675 6.474.854 3.656 4.276 13.128 10.259 17.693.963 1.167-.7 3.344-3.162 1.416"/><path d="M29.495 40.869c-.322 1.916-.855 3.924-1.981 5.308-1.122 1.379-1.443.634-.907-1.91.534-2.55 1.268-4.617 1.818-5.63.375-.693 1.39.32 1.07 2.232m29.571-9.025c-.11-2.124-1.46-2.014-5.311-1.378-3.846.634-9.834 2.01-11.65 2.225-1.818.214-2.351.43-2.243-.847.105-1.275.318-3.183-1.71-2.548-2.03.636-2.052 1.273-1.882 2.335.171 1.06.49 1.49-.686 1.697-1.177.217-4.168-.423-3.846.532.318.956 1.068 1.486 2.563 1.486 1.497 0 2.546-.105 2.29 2.02-.255 2.122-1.007 7.216-1.113 8.597-.11 1.38-.747.848-1.392-1.17-.637-2.015-1.28-4.14-1.387-5.945-.108-1.804-1.858-2.694-2.565-2.97 0 0-2.78-1.592-4.489 1.594-1.71 3.181-2.243 6.794-2.46 10.51-.213 3.713.428 4.774 2.674 4.563 2.244-.212 2.99-1.595 4.058-4.248 1.073-2.652 1.288-2.23 2.674.212 1.391 2.441 6.165 6.513 6.7.46.53-6.048.035-12.03.676-12.877.639-.85-.213-.958 4.597-1.17 4.81-.213 10.095.21 11.542.105 2.961-.211 3.066-1.06 2.96-3.183"/><path d="M45.526 29.939c0 .896-.924 1.623-2.057 1.623-1.136 0-2.059-.727-2.059-1.623 0-.899.923-1.625 2.059-1.625 1.133 0 2.057.726 2.057 1.625m19.584 9.623c-.32 1.915-.852 3.924-1.975 5.306-1.125 1.378-1.442.633-.91-1.915.533-2.543 1.267-4.614 1.82-5.625.373-.69 1.387.32 1.066 2.234m8.122-6.774c-3.325-3.608-5.422-6.298-6.471-6.651-1.05-.351-.961-1.487-.262-1.697.701-.214 1.747 1.275 2.536 2.264.785.988 1.922 2.62 2.795 2.829.878.212 1.224-1.555 1.31-3.818.092-2.269.176-7.717-3.407-8.991-3.582-1.274-6.642-.636-9.005-2.121-2.361-1.486-2.885-2.123-3.148-1.06-.261 1.06-1.835 7.357.088 10.683 1.927 3.325 5.77 4.175 9.002 5.733 3.237 1.558 5.423 3.845 6.212 7.264.784 3.422.985 6.118.372 7.463-.14.31-.37.64-.637.897a2.942 2.942 0 0 0-.124.063c-1.143.836-2.145-.145-2.788-2.16-.641-2.018-1.28-4.14-1.386-5.946-.11-1.805-1.679-3.308-2.381-3.583 0 0-1.465-.56-2.937.24l-.38.136c-.998.345-2.748 1.481-4.3 2.475-1.077.588-1.752.64-2.439.306-.838-.412-3.056-.465-3.535.202-.48.67-.54 1.902.538 2.47 1.078.566 1.5-.257 1.5 1.235s-.302 4.371-.598 5.243c-.303.877-1.283-.53-1.519-1.817-.242-1.286-1.054-4.849-1.302-5.484-.3-.768.181-1.647-.48-2.055-.657-.413-3.113-.77-4.072-.311-.96.464-1.081 1.338-.659 1.958.419.615 1.093.848 1.233 1.543.447 1.235.65 5.154 1.55 7.366.9 2.208 2.072 4.407 4.048 4.512 1.977.098 2.876-1.392 3.478-3.09.598-1.695 1.198-4.778 1.079-6.478-.122-1.696-.333-2.418.015-2.775.343-.362 2.254-.318 2.91-1.038.113-.125.21-.28.296-.455-1.011 2.668-1.39 5.564-1.56 8.532-.214 3.715.427 4.778 2.67 4.565 2.249-.213 2.996-1.59 4.065-4.248 1.068-2.653 1.565-2.369 2.67.21.413.96 1.327 1.678 2.407 2.036 0 0-.003.004-.003.01a5.2 5.2 0 0 0 .455.112c.917.206 1.916.16 2.81-.212 1.257-.465 2.41-1.513 2.848-3.547.69-3.17-.173-9.198-3.494-12.81M45.206 41.42s-.293-3.057-.68-3.838c-.387-.78-.947-1.623-2.157-1.1-1.21.52-1.207.593-1.048 4.177.165 3.58-.349 6.984.355 8.768.707 1.786 2.206 3.004 3.871 3.037 1.669.033 3.066-.281 2.589-1.132-.473-.845-1.604-.33-2.401-2.253-.8-1.923-.53-7.66-.53-7.66"/></g></svg>